<svg width="56" height="56" viewBox="0 0 56 56" fill="none" xmlns="http://www.w3.org/2000/svg">
<rect x="0.75" y="0.75" width="54.5" height="54.5" rx="27.25" fill="white"/>
<path d="M37 37V22.75L30.25 16H22C21.2044 16 20.4413 16.3161 19.8787 16.8787C19.3161 17.4413 19 18.2044 19 19V37C19 37.7956 19.3161 38.5587 19.8787 39.1213C20.4413 39.6839 21.2044 40 22 40H34C34.7956 40 35.5587 39.6839 36.1213 39.1213C36.6839 38.5587 37 37.7956 37 37ZM30.25 20.5C30.25 21.0967 30.4871 21.669 30.909 22.091C31.331 22.5129 31.9033 22.75 32.5 22.75H35.5V37C35.5 37.3978 35.342 37.7794 35.0607 38.0607C34.7794 38.342 34.3978 38.5 34 38.5H22C21.6022 38.5 21.2206 38.342 20.9393 38.0607C20.658 37.7794 20.5 37.3978 20.5 37V19C20.5 18.6022 20.658 18.2206 20.9393 17.9393C21.2206 17.658 21.6022 17.5 22 17.5H30.25V20.5Z" fill="#394160"/>
<path d="M22.9045 37.1295C22.6121 37.0126 22.3766 36.7867 22.2475 36.4995C21.955 35.9175 22.0525 35.3355 22.3675 34.8465C22.6645 34.386 23.1565 33.9945 23.713 33.666C24.4179 33.2662 25.163 32.9419 25.936 32.6985C26.5363 31.6194 27.0683 30.5037 27.529 29.358C27.2536 28.7322 27.0376 28.0818 26.884 27.4155C26.755 26.8155 26.7055 26.2215 26.815 25.7115C26.9275 25.1805 27.226 24.7035 27.79 24.477C28.078 24.3615 28.39 24.297 28.693 24.3615C28.8454 24.394 28.9887 24.4599 29.1125 24.5546C29.2362 24.6493 29.3373 24.7704 29.4085 24.909C29.5405 25.155 29.5885 25.443 29.599 25.716C29.6095 25.998 29.581 26.31 29.5285 26.637C29.4025 27.402 29.1235 28.338 28.7485 29.328C29.1623 30.213 29.6543 31.0594 30.2185 31.857C30.8862 31.8043 31.5577 31.8294 32.2195 31.932C32.7655 32.031 33.3205 32.2245 33.6595 32.6295C33.8395 32.8455 33.949 33.1095 33.9595 33.4065C33.97 33.6945 33.889 33.9795 33.7525 34.251C33.6343 34.5026 33.4509 34.718 33.2215 34.875C32.9947 35.0229 32.7269 35.0954 32.4565 35.082C31.96 35.061 31.4755 34.788 31.057 34.4565C30.5481 34.0358 30.0896 33.5576 29.6905 33.0315C28.6761 33.1466 27.6738 33.3504 26.695 33.6405C26.2468 34.4354 25.7351 35.1929 25.165 35.9055C24.727 36.4305 24.2515 36.8895 23.7745 37.086C23.5004 37.21 23.1896 37.2255 22.9045 37.1295ZM24.973 34.278C24.724 34.392 24.493 34.512 24.2845 34.635C23.7925 34.926 23.473 35.2095 23.314 35.4555C23.173 35.673 23.17 35.8305 23.254 35.997C23.269 36.03 23.284 36.051 23.293 36.063C23.3109 36.0582 23.3284 36.0522 23.3455 36.045C23.551 35.961 23.878 35.6925 24.298 35.187C24.5369 34.8946 24.7621 34.5912 24.973 34.278ZM27.433 32.283C27.9339 32.1661 28.4393 32.0695 28.948 31.9935C28.6749 31.5755 28.4196 31.1462 28.183 30.7065C27.9477 31.2384 27.6976 31.7636 27.433 32.2815V32.283ZM31.102 32.958C31.327 33.2025 31.546 33.408 31.7545 33.573C32.1145 33.858 32.365 33.9525 32.5015 33.957C32.538 33.9618 32.5751 33.9538 32.6065 33.9345C32.6689 33.8852 32.7175 33.8206 32.7475 33.747C32.8008 33.6556 32.8312 33.5527 32.836 33.447C32.8351 33.4118 32.8212 33.3781 32.797 33.3525C32.719 33.2595 32.497 33.1245 32.02 33.039C31.7166 32.9883 31.4096 32.9617 31.102 32.9595V32.958ZM28.117 27.699C28.2432 27.2918 28.3434 26.877 28.417 26.457C28.4635 26.175 28.4815 25.9425 28.474 25.7595C28.4744 25.6585 28.4582 25.5582 28.426 25.4625C28.351 25.4718 28.2777 25.492 28.2085 25.5225C28.078 25.575 27.9715 25.6815 27.9145 25.947C27.8545 26.235 27.8695 26.6505 27.9835 27.18C28.0195 27.3465 28.0645 27.5205 28.1185 27.699H28.117Z" fill="#394160"/>
<rect x="0.75" y="0.75" width="54.5" height="54.5" rx="27.25" stroke="#394160" stroke-width="1.5"/>
</svg>
