<svg width="14" height="14" viewBox="0 0 14 14" fill="none" xmlns="http://www.w3.org/2000/svg">
<path d="M7.20085 0.333328C10.8828 0.333328 13.8675 3.318 13.8675 7C13.8675 10.682 10.8828 13.6667 7.20085 13.6667C3.51885 13.6667 0.53418 10.682 0.53418 7C0.53418 3.318 3.51885 0.333328 7.20085 0.333328ZM7.20085 1.33333C5.69795 1.33333 4.25661 1.93035 3.19391 2.99306C2.1312 4.05576 1.53418 5.4971 1.53418 7C1.53418 8.50289 2.1312 9.94423 3.19391 11.0069C4.25661 12.0696 5.69795 12.6667 7.20085 12.6667C8.70374 12.6667 10.1451 12.0696 11.2078 11.0069C12.2705 9.94423 12.8675 8.50289 12.8675 7C12.8675 5.4971 12.2705 4.05576 11.2078 2.99306C10.1451 1.93035 8.70374 1.33333 7.20085 1.33333Z" fill="#FF4444"/>
<path d="M6.40039 4.33333C6.40039 3.96514 6.69887 3.66666 7.06706 3.66666C7.43525 3.66666 7.73372 3.96514 7.73372 4.33333V8.33333C7.73372 8.70152 7.43525 9 7.06706 9C6.69887 9 6.40039 8.70152 6.40039 8.33333V4.33333Z" fill="#FF4444"/>
<path d="M7.73372 10.3333C7.73372 10.7015 7.43525 11 7.06706 11C6.69887 11 6.40039 10.7015 6.40039 10.3333C6.40039 9.96514 6.69887 9.66666 7.06706 9.66666C7.43525 9.66666 7.73372 9.96514 7.73372 10.3333Z" fill="#FF4444"/>
</svg>
